<?xml version="1.0" encoding="utf-8"?>
<!-- Generator: Adobe Illustrator 21.0.0, SVG Export Plug-In . SVG Version: 6.00 Build 0)  -->
<svg version="1.1" id="Layer_1" xmlns="http://www.w3.org/2000/svg" xmlns:xlink="http://www.w3.org/1999/xlink" x="0px" y="0px"
	 viewBox="0 0 32 32" style="enable-background:new 0 0 32 32;" xml:space="preserve">
<style type="text/css">
	.st0{fill:#1B75BB;}
	.st1{fill:#03578A;}
	.st2{fill:#03578A;stroke:#03578A;stroke-miterlimit:10;}
</style>
<g>
	<g>
		<path class="st0" d="M21.8,8.2h1c0.8-0.1,1.6-0.5,2-1.2c0.2-0.3,0.3-0.6,0.4-0.9c0.1-0.3,0.3-0.7,0.5-1c0.3-0.4,0.7-0.8,1.1-1V1.6
			c0-0.3-0.3-0.6-0.7-0.6h-2.7c-0.4,0-0.7,0.3-0.7,0.6v3.1h-3.5c-0.4,0-0.7,0.3-0.7,0.6v2.1c0,0.1,0,0.1,0,0.2c0,0,0,0,0.1,0
			C20.1,7.5,21.1,7.8,21.8,8.2z"/>
		<path class="st1" d="M30.3,4.8h-3.5c-0.3,0.2-0.5,0.4-0.7,0.7c-0.2,0.3-0.3,0.6-0.4,0.9c-0.1,0.3-0.2,0.7-0.4,1
			c-0.5,0.8-1.4,1.3-2.4,1.4v0.6c0.5,0.7,0.7,1.6,0.7,2.6v0.1h2.7c0.4,0,0.7-0.3,0.7-0.6V8.4h3.5c0.4,0,0.7-0.3,0.7-0.6V5.4
			C31,5.1,30.7,4.8,30.3,4.8z"/>
	</g>
	<path class="st2" d="M13.3,31.5H8.5V14.9H2.3v-3.6h17.1v3.6h-6.1V31.5z"/>
</g>
</svg>
